<svg id="图层_1" data-name="图层 1" xmlns="http://www.w3.org/2000/svg" viewBox="0 0 298.61 356.9"><defs><style>.cls-1{stroke:#000;stroke-miterlimit:10;}</style></defs><path class="cls-1" d="M206.17,96.53c10.41,12,16.87,26.85,22.39,41.74,5.4,14.56,10.84,30.44,23.69,39.15,16.17,11,41.3,4.59,50.29-12.74,3-5.84,4.34-12.38,5.61-18.83l6.38-32.36c4-20.26,10.26-43.49,29.17-51.81,16.67-7.35,37.21,1.23,48,15.89s13.64,33.8,13.27,52c-.42,21.15-5.27,43.4-19.83,58.74-5.08,5.36-11.16,9.68-16.41,14.88-17,16.82-23.93,43.09-17.48,66.1,4.58,16.38,15.11,30.33,25.46,43.82s20.95,27.37,25.73,43.69,2.46,35.88-10.15,47.28c-8.09,7.31-19.29,10.35-30.18,10.75a63.85,63.85,0,0,1-26.32-4.35c-27.95-11.36-41.84-43.21-46-73.09-1.45-10.34-2.11-20.92-5.69-30.72s-10.79-19-20.85-21.76-20.74,1.36-29,7.58a60.83,60.83,0,0,0-16.76,19.34c-9.09,16.62-10,36.65-18.37,53.63-3.8,7.71-9.4,14.9-17.17,18.56-9.06,4.26-19.76,3.16-29.4.41-13.67-3.89-26.87-11.3-34.76-23.13-12-18-9.32-42.37-.74-62.25S139.31,262,149.19,242.7c3.29-6.41,6.22-13.67,4.43-20.65-1.41-5.48-5.48-9.79-9.22-14C121.29,181.73,91.86,129,117.16,95.31,137.89,67.75,185.65,72.91,206.17,96.53Z" transform="translate(-106.94 -58.5)"/></svg>